HIERARCHY
ROOT Hips
{
	OFFSET 0.00000 0.00000 0.00000
	CHANNELS 6 Xposition Yposition Zposition Zrotation Yrotation Xrotation 
	JOINT LHipJoint
	{
		OFFSET 0 0 0
		CHANNELS 3 Zrotation Yrotation Xrotation
		JOINT LeftHip
		{
			OFFSET 1.34019 -1.87553 0.90315
			CHANNELS 3 Zrotation Yrotation Xrotation
			JOINT LeftKnee
			{
				OFFSET 2.55316 -7.01474 0.00000
				CHANNELS 3 Zrotation Yrotation Xrotation
				JOINT LeftAnkle
				{
					OFFSET 2.64657 -7.27139 0.00000
					CHANNELS 3 Zrotation Yrotation Xrotation
					JOINT LeftToe
					{
						OFFSET 0.24207 -0.66507 2.14489
						CHANNELS 3 Zrotation Yrotation Xrotation
						End Site
						{
							OFFSET 0.00000 -0.00000 1.12451
						}
					}
				}
			}
		}
	}
	JOINT RHipJoint
	{
		OFFSET 0 0 0
		CHANNELS 3 Zrotation Yrotation Xrotation
		JOINT RightHip
		{
			OFFSET -1.28320 -1.87553 0.90315
			CHANNELS 3 Zrotation Yrotation Xrotation
			JOINT RightKnee
			{
				OFFSET -2.60484 -7.15674 0.00000
				CHANNELS 3 Zrotation Yrotation Xrotation
				JOINT RightAnkle
				{
					OFFSET -2.60296 -7.15159 0.00000
					CHANNELS 3 Zrotation Yrotation Xrotation
					JOINT RightToe
					{
						OFFSET -0.31082 -0.85398 2.28998
						CHANNELS 3 Zrotation Yrotation Xrotation
						End Site
						{
							OFFSET -0.00000 -0.00000 1.21611
						}
					}
				}
			}
		}
	}
	JOINT lowerback
	{
		OFFSET 0 0 0
		CHANNELS 3 Zrotation Yrotation Xrotation
		JOINT Chest
		{
			OFFSET -0.00160 2.05581 -0.15156
			CHANNELS 3 Zrotation Yrotation Xrotation
			JOINT Chest2
			{
				OFFSET 0.04594 2.06326 -0.01617
				CHANNELS 3 Zrotation Yrotation Xrotation
				JOINT lowerneck
				{
					OFFSET 0 0 0
					CHANNELS 3 Zrotation Yrotation Xrotation
					JOINT Neck
					{
						OFFSET 0.03753 1.73883 0.26751
						CHANNELS 3 Zrotation Yrotation Xrotation
						JOINT Head
						{
							OFFSET -0.09795 1.76129 -0.31794
							CHANNELS 3 Zrotation Yrotation Xrotation
							End Site
							{
								OFFSET -0.03611 1.79987 -0.13846
							}
						}
					}
				}
				JOINT LeftCollar
				{
					OFFSET 0 0 0
					CHANNELS 3 Zrotation Yrotation Xrotation
					JOINT LeftShoulder
					{
						OFFSET 3.30667 1.29205 -0.22445
CHANNELS 3 Zrotation Xrotation Yrotation
						JOINT LeftElbow
						{
OFFSET 0 -4.927850 -0.000000
CHANNELS 3 Zrotation Xrotation Yrotation
							JOINT LeftWrist
							{
OFFSET 0 -3.440520 0.000000
CHANNELS 3 Zrotation Xrotation Yrotation
								JOINT lhand
								{
									OFFSET 0 0 0
CHANNELS 3 Zrotation Xrotation Yrotation
									JOINT LFingers
									{
OFFSET 0 -0.654330 0.000000
CHANNELS 3 Zrotation Xrotation Yrotation
										End Site
										{
OFFSET 0 -0.527530 0.000000
										}
									}
								}
								JOINT LThumb
								{
OFFSET 0 0.000000 0.000000
CHANNELS 3 Zrotation Xrotation Yrotation
									End Site
									{
OFFSET 0 -0.535590 0.535590
									}
								}
							}
						}
					}
				}
				JOINT RightCollar
				{
					OFFSET 0 0 0
					CHANNELS 3 Zrotation Yrotation Xrotation
					JOINT RightShoulder
					{
						OFFSET -3.20032 1.49783 -0.27688
CHANNELS 3 Zrotation Xrotation Yrotation
						JOINT RightElbow
						{
OFFSET 0 -5.091810 -0.000000
CHANNELS 3 Zrotation Xrotation Yrotation
							JOINT RightWrist
							{
OFFSET 0 -3.498650 -0.000000
CHANNELS 3 Zrotation Xrotation Yrotation
								JOINT rhand
								{
									OFFSET 0 0 0
CHANNELS 3 Zrotation Xrotation Yrotation
									JOINT RFingers
									{
OFFSET 0 -0.666410 0.000000
CHANNELS 3 Zrotation Xrotation Yrotation
										End Site
										{
OFFSET 0 -0.537280 0.000000
										}
									}
								}
								JOINT RThumb
								{
OFFSET 0 0.000000 0.000000
CHANNELS 3 Zrotation Xrotation Yrotation
									End Site
									{
OFFSET 0 -0.545480 0.545480
									}
								}
							}
						}
					}
				}
			}
		}
	}
}
MOTION
Frames: 12
Frame Time: 0.008333333333333333
-0.979000 17.942100 -29.263500 176.589000 -2.325800 -176.076000 0.000000 0.000000 0.000000 -22.652100 -4.356700 -3.883100 1.281000 7.172400 20.227000 0.088200 9.398400 -14.822400 0.301700 -3.531800 -9.763100 0.000000 0.000000 0.000000 12.308200 3.026400 -9.227000 -2.695600 -10.185100 29.578300 -0.313400 -12.260700 -21.043100 -0.120100 2.234300 -6.153700 -2.824300 0.481400 -3.096200 0.285200 0.655800 -1.782600 1.894800 0.324900 -0.129800 5.254200 1.405100 -25.887500 -2.519700 0.505900 20.722000 -1.705500 0.296100 10.989400 0.000000 -0.000000 0.000000 3.440200 1.710400 -35.196900 11.875300 -19.617400 2.060200 10.017800 -2.028900 2.973600 0.000000 0.000000 0.000000 -7.125000 0.000000 0.000000 -12.608300 26.901500 -5.667900 0.000000 -0.000000 0.000000 -1.497900 1.601300 11.912700 -11.702300 -19.356600 -2.002500 -17.576700 4.672700 0.676100 0.000000 0.000000 0.000000 7.125000 0.000000 -0.000000 7.125200 30.645600 2.515500
-1.008234 17.933793 -29.260371 179.032529 -3.459758 -176.966312 0.000000 0.000000 0.000000 -19.854661 -3.966840 -4.279362 1.533456 7.817870 22.162357 0.269198 7.850591 -15.643471 0.315564 -3.611098 -9.984955 0.000000 0.000000 0.000000 15.215851 2.468304 -7.332224 -2.411366 -9.674845 27.930189 -0.147061 -13.431102 -20.741965 -0.120300 2.236047 -6.158442 0.505443 0.118619 -2.435173 1.898214 0.069276 -1.554974 1.662835 0.005822 -0.229398 5.578586 1.184985 -25.175254 -2.493941 0.116926 20.014160 -1.801164 0.144575 10.583152 0.000000 0.000000 0.000000 2.896113 1.515166 -35.533327 12.011294 -19.821579 2.106127 10.018933 -2.128764 2.950972 0.000000 0.000000 0.000000 -7.125000 0.000000 0.000000 -12.609852 26.924016 -5.661831 0.000000 0.000000 0.000000 -1.936808 1.734688 10.786842 -11.204878 -18.601686 -1.840788 -17.572047 5.356993 -0.038105 0.000000 0.000000 0.000000 7.125000 0.000000 0.000000 7.073821 29.902155 2.623697
-1.000256 17.934747 -29.251156 178.003850 -3.745394 -176.640651 0.000000 0.000000 0.000000 -20.909138 -3.982965 -4.397414 1.465614 7.650785 21.658383 0.254336 7.623345 -15.201494 0.319429 -3.632921 -10.046233 0.000000 0.000000 0.000000 14.093480 2.499009 -7.900339 -2.507602 -9.851671 28.497697 -0.168459 -13.502469 -21.057923 -0.117524 2.210266 -6.087174 -0.957627 -0.692954 -2.402858 2.266592 -0.983888 -1.493445 2.840505 -0.510194 -0.128420 6.536133 1.947283 -25.763373 -3.075549 0.925050 20.375139 -2.044477 0.517769 10.868424 0.000000 0.000000 0.000000 2.038565 1.176745 -33.450094 12.088801 -19.937690 2.132502 10.035059 -1.605095 2.870342 0.000000 0.000000 0.000000 -7.125000 0.000000 0.000000 -12.606311 27.003963 -5.635832 0.000000 0.000000 0.000000 -2.414410 1.311971 12.577923 -11.094689 -18.433233 -1.805763 -17.315276 5.276640 0.065726 0.000000 0.000000 0.000000 7.125000 0.000000 0.000000 7.282914 30.007831 2.683781
-0.954496 17.943304 -29.253333 179.770541 -3.647377 -177.158715 0.000000 0.000000 0.000000 -18.854474 -4.317102 -4.291615 1.599056 7.975532 22.639888 0.271258 7.989569 -15.815445 0.301742 -3.531896 -9.763174 0.000000 0.000000 0.000000 16.277806 2.330458 -7.089394 -2.357197 -9.573570 27.606512 -0.090507 -13.634880 -20.399861 -0.124322 2.273335 -6.261626 0.906581 -0.137292 -1.921090 2.248061 -0.281801 -1.590435 1.791542 -0.177070 -0.544775 5.740031 1.252843 -24.721087 -2.539354 0.172823 20.249281 -1.837736 0.174509 10.591574 0.000000 0.000000 0.000000 2.094867 1.596415 -35.557918 12.138834 -20.012483 2.149582 10.118339 -2.058277 3.136695 0.000000 0.000000 0.000000 -7.125000 0.000000 0.000000 -12.515851 26.739756 -5.673141 0.000000 0.000000 0.000000 -2.222461 1.912293 11.199427 -11.340064 -18.807675 -1.884135 -17.463542 5.453657 0.554717 0.000000 0.000000 0.000000 7.125000 0.000000 0.000000 7.204658 30.517861 2.566080
-0.946878 17.976810 -29.205608 180.491386 -3.426254 -176.909424 0.000000 0.000000 0.000000 -18.158254 -5.169216 -4.931979 1.699113 8.209002 23.350704 0.190323 9.065925 -15.894069 0.270290 -3.344338 -9.238924 0.000000 0.000000 0.000000 16.974375 2.074626 -7.587163 -2.275386 -9.417571 27.110374 -0.027844 -13.177179 -19.067664 -0.153672 2.525927 -6.961552 0.349065 -0.438590 -1.584593 2.304782 -0.664328 -1.565414 2.160461 -0.360261 -0.690531 6.422907 1.890797 -24.855332 -3.290860 0.997028 20.287472 -2.091335 0.511184 10.676962 0.000000 0.000000 0.000000 1.299503 1.403307 -34.013783 12.314461 -20.274663 2.210092 9.817473 -2.070591 3.130746 0.000000 0.000000 0.000000 -7.125000 0.000000 0.000000 -12.742091 26.746134 -5.778718 0.000000 0.000000 0.000000 -3.205803 1.321198 13.242137 -11.546949 -19.121747 -1.951324 -17.415163 4.670305 0.793238 0.000000 0.000000 0.000000 7.125000 0.000000 0.000000 7.262220 30.765213 2.543577
-1.063488 17.990567 -29.056271 181.190332 -4.032510 -177.118963 0.000000 0.000000 0.000000 -17.849362 -5.951347 -5.767441 1.860273 8.568705 24.455297 0.166711 9.237197 -15.766887 0.239834 -3.151409 -8.700523 0.000000 0.000000 0.000000 17.305235 1.775096 -7.813153 -2.231385 -9.332211 26.840249 0.083503 -13.494544 -18.154299 -0.177989 2.717816 -7.493965 0.609263 -0.129093 -0.756577 1.976881 -0.223396 -1.622445 1.685398 -0.136013 -1.231608 5.563711 1.332960 -23.687801 -2.930076 0.491941 20.295565 -1.898763 0.251884 10.436624 0.000000 0.000000 0.000000 1.146150 1.511847 -36.213264 12.652446 -20.775864 2.328547 10.350569 -2.396894 3.564397 0.000000 0.000000 0.000000 -7.125000 0.000000 0.000000 -12.298609 26.314503 -5.696085 0.000000 0.000000 0.000000 -4.010266 1.947027 13.132640 -12.149196 -20.028043 -2.153103 -17.387063 3.627652 1.103322 0.000000 0.000000 0.000000 7.125000 0.000000 0.000000 7.310411 31.087018 2.503856
-1.340452 17.997735 -28.722575 181.525923 -5.173151 -177.075541 0.000000 0.000000 0.000000 -18.483202 -6.975806 -7.903518 2.100251 9.071802 26.020208 0.131143 9.194137 -15.207419 0.200656 -2.884618 -7.957756 0.000000 0.000000 0.000000 16.609392 2.001954 -9.296228 -2.349027 -9.558032 27.557108 0.259140 -14.414427 -17.276007 -0.203765 2.906652 -8.019039 -0.081809 -0.507950 1.269379 2.101974 -0.690401 -1.061136 2.222087 -0.349348 -1.772472 5.635435 1.541509 -24.632779 -3.287670 0.821886 20.034041 -1.985118 0.368886 10.528073 0.000000 0.000000 0.000000 0.717748 0.324900 -36.883854 13.416806 -21.894838 2.606679 10.399914 -3.513396 3.256461 0.000000 0.000000 0.000000 -7.125000 0.000000 0.000000 -12.292315 26.620139 -5.602796 0.000000 0.000000 0.000000 -5.120722 1.809406 14.808676 -13.781895 -22.421976 -2.744374 -17.596200 0.380056 1.013374 0.000000 0.000000 0.000000 7.125000 0.000000 0.000000 7.137293 30.996972 2.459224
-1.684156 18.035041 -28.187738 183.829873 -4.760455 -175.957780 0.000000 0.000000 0.000000 -16.883036 -6.852020 -12.630540 2.393508 9.641568 27.823767 0.091049 8.817005 -14.128848 0.204985 -2.915094 -8.042471 0.000000 0.000000 0.000000 17.382972 1.726669 -12.605717 -2.436158 -9.720712 28.077124 -0.252465 -11.495401 -19.497247 -0.357961 3.842536 -10.634099 1.429569 -0.058810 3.901577 2.620508 0.005327 -1.346425 1.901761 -0.033738 -3.576102 5.459797 1.168099 -24.157725 -2.981751 0.337383 18.849170 -1.902849 0.172339 9.988622 0.000000 0.000000 0.000000 1.270357 0.206901 -37.576138 13.754334 -22.382393 2.733893 10.146259 -3.918003 3.263515 0.000000 0.000000 0.000000 -7.125000 0.000000 0.000000 -12.481789 26.613919 -5.694954 0.000000 0.000000 0.000000 -4.921631 2.769097 13.639464 -14.956819 -24.085926 -3.208275 -17.467709 -0.803405 1.186678 0.000000 0.000000 0.000000 7.125000 0.000000 0.000000 7.253628 31.175138 2.468685
-1.839021 18.116536 -27.661480 185.147693 -5.546415 -175.636052 0.000000 0.000000 0.000000 -15.787893 -7.497221 -14.899797 2.301205 9.467161 27.267782 0.015479 8.084401 -11.835095 0.182222 -2.749700 -7.582544 0.000000 0.000000 0.000000 19.300123 -0.925132 -11.260319 -4.644768 -12.972108 39.264375 -0.369067 -12.613507 -22.001728 -0.278847 3.396191 -9.383653 1.701595 -0.234101 4.407366 3.014604 -0.203373 -1.474775 2.179232 -0.150022 -3.990861 5.354096 1.140346 -23.526927 -3.193966 0.416173 18.752226 -1.946088 0.173843 9.845866 0.000000 0.000000 0.000000 2.932312 -0.515474 -33.485334 12.933417 -21.189581 2.429169 10.179531 -2.504830 2.685085 0.000000 0.000000 0.000000 -7.125000 0.000000 0.000000 -12.517261 27.187563 -5.538652 0.000000 0.000000 0.000000 -3.584322 2.998804 12.461848 -13.990155 -22.720639 -2.824310 -17.372889 0.765621 0.668080 0.000000 0.000000 0.000000 7.125000 0.000000 0.000000 7.285439 30.634509 2.574838
-1.872040 18.154760 -27.080658 185.735932 -4.576214 -174.913007 0.000000 0.000000 0.000000 -14.872952 -7.496036 -17.704560 2.224173 9.318253 26.796091 -0.020020 7.214026 -9.814659 0.159493 -2.573535 -7.093457 0.000000 0.000000 0.000000 20.961060 -1.819938 -1.763247 -5.553493 -13.981206 43.162245 0.159932 -9.195830 -9.626391 -0.345594 3.777296 -10.450974 2.521174 0.503309 2.784416 2.910661 0.750514 -1.991377 1.546385 0.293657 -3.619572 5.274904 0.927411 -23.796208 -3.366517 0.167144 19.422414 -2.044145 0.030139 10.121507 0.000000 0.000000 0.000000 4.613926 0.148855 -30.549458 13.284879 -21.703233 2.557680 10.882450 -2.826235 2.643118 0.000000 0.000000 0.000000 -7.125000 0.000000 0.000000 -11.991415 27.229295 -5.283895 0.000000 0.000000 0.000000 -2.913664 3.984969 14.974061 -14.112643 -22.895509 -2.871839 -17.220012 0.766698 0.719265 0.000000 0.000000 0.000000 7.125000 0.000000 0.000000 7.410128 30.685458 2.610433
-1.785272 18.106519 -26.194523 186.542052 -2.716393 -174.497451 0.000000 0.000000 0.000000 -13.122629 -7.213665 -22.191666 2.422571 9.695712 27.996789 -0.055147 6.605196 -7.865247 0.122597 -2.257057 -6.216665 0.000000 0.000000 0.000000 22.710180 -3.460664 8.543926 -3.164228 -10.955650 32.131102 0.177017 -7.646727 -0.900580 -0.393693 4.028686 -11.157378 5.075585 1.238782 1.285347 2.707571 1.691916 -2.317194 -0.112948 0.680452 -3.040875 5.044786 0.865568 -23.947816 -3.308560 0.125150 20.123557 -2.005148 -0.003070 10.400456 0.000000 0.000000 0.000000 5.202728 0.311927 -29.372212 12.591743 -20.686059 2.307034 10.663357 -2.020139 2.497715 0.000000 0.000000 0.000000 -7.125000 0.000000 0.000000 -12.171984 27.373967 -5.324447 0.000000 0.000000 0.000000 -2.470814 4.701223 19.628530 -17.204166 -27.125902 -4.180186 -17.610325 -2.808978 0.802433 0.000000 0.000000 0.000000 7.125000 0.000000 0.000000 7.108856 30.777484 2.486945
-1.483564 17.860905 -24.792185 186.921336 -0.493878 -175.213043 0.000000 0.000000 0.000000 -10.569978 -7.480391 -28.267580 2.995849 10.688169 31.235550 -0.112666 6.322163 -4.610547 0.137652 -2.390663 -6.586556 0.000000 0.000000 0.000000 25.094059 -2.993297 13.213805 -1.362287 -7.387412 20.868364 0.198623 -7.969757 -4.171395 -0.947333 6.198488 -17.361547 5.687476 0.412457 1.586036 3.419872 0.570637 -1.920233 0.321983 0.102262 -2.844844 6.647749 2.369097 -23.511033 -4.644813 1.991353 20.331762 -2.464289 0.806660 10.521504 0.000000 0.000000 0.000000 4.584237 1.215757 -29.084674 13.881532 -22.564840 2.782610 10.467486 -3.599289 2.637021 0.000000 0.000000 0.000000 -7.125000 0.000000 0.000000 -12.305235 27.235409 -5.426465 0.000000 0.000000 0.000000 -3.528517 4.706691 29.309493 -22.253785 -33.262552 -6.724540 -18.085865 -7.774207 0.732843 0.000000 0.000000 0.000000 7.125000 0.000000 0.000000 6.727568 30.711725 2.362612
